<?xml version="1.0" standalone="no"?>
<!DOCTYPE svg PUBLIC "-//W3C//DTD SVG 20010904//EN"
 "http://www.w3.org/TR/2001/REC-SVG-20010904/DTD/svg10.dtd">
<svg version="1.0" xmlns="http://www.w3.org/2000/svg"
 width="150.000000pt" height="150.000000pt" viewBox="0 0 150.000000 150.000000"
 preserveAspectRatio="xMidYMid meet">
<metadata>
Created by potrace 1.11, written by Peter Selinger 2001-2013
</metadata>
<g transform="translate(0.000000,150.000000) scale(0.100000,-0.100000)"
fill="#000000" stroke="none">
<path d="M273 1443 c-10 -4 -9 -1390 1 -1400 3 -4 57 -9 119 -11 l112 -4 120
170 c66 94 123 170 127 169 3 -1 61 -75 127 -163 136 -181 126 -174 264 -174
63 0 67 1 68 23 4 113 1 1379 -4 1383 -4 4 -58 8 -120 9 l-114 2 -118 -169
c-65 -93 -122 -167 -126 -166 -4 2 -62 76 -129 166 -101 134 -127 162 -149
163 -57 3 -170 4 -178 2z m777 -679 l0 -517 -100 129 c-55 71 -98 135 -95 142
3 7 36 57 75 111 38 54 70 103 70 108 0 10 -90 134 -148 205 -24 28 -24 28 -5
56 28 45 198 282 201 282 1 0 2 -232 2 -516z m-511 324 c50 -65 91 -120 91
-123 0 -3 -34 -53 -75 -112 -41 -58 -75 -109 -75 -113 0 -5 31 -48 68 -97 38
-48 76 -100 86 -114 l17 -26 -107 -149 c-58 -82 -108 -151 -110 -153 -2 -2 -4
227 -4 509 0 288 4 510 9 505 4 -6 49 -63 100 -127z m227 -295 c17 -21 34 -44
38 -51 8 -13 -42 -92 -59 -91 -10 0 -75 82 -75 94 0 10 53 85 60 85 4 0 20
-17 36 -37z"/>
</g>
</svg>
